<?xml version="1.0" encoding="utf-8"?>
<!-- Generator: Adobe Illustrator 23.0.0, SVG Export Plug-In . SVG Version: 6.00 Build 0)  -->
<svg version="1.1" id="_x2014_ÎÓÈ_x5F_1" xmlns="http://www.w3.org/2000/svg" xmlns:xlink="http://www.w3.org/1999/xlink"
	 x="0px" y="0px" viewBox="0 0 542.41 542.41" style="enable-background:new 0 0 542.41 542.41;" xml:space="preserve">
<style type="text/css">
	.st0{fill:#FFFFFF;}
	.st1{fill:#DDB40A;}
	.st2{fill:#0E1435;}
	.st3{fill:#070707;}
	.st4{fill:#561C3A;}
	.st5{fill-rule:evenodd;clip-rule:evenodd;fill:#FFFFFF;}
	.st6{fill:#6D1322;}
	.st7{fill:#161D5A;}
	.st8{fill:#F7CF01;}
	.st9{fill:#F1F1F2;}
	.st10{fill:#282828;}
	.st11{fill:#6A2140;}
	.st12{fill-rule:evenodd;clip-rule:evenodd;fill:#AA182C;}
</style>
<path class="st0" d="M271.2,97c-84.57,0.01-153.11,68.55-153.12,153.12c0.01,84.57,68.54,153.1,153.12,153.12
	c84.56-0.01,153.1-68.54,153.12-153.12C424.31,165.55,355.76,97.01,271.2,97z M271.2,379.06c-71.22-0.12-128.82-57.74-128.94-128.94
	c0.12-71.21,57.72-128.81,128.94-128.94c71.2,0.13,128.8,57.73,128.94,128.94C400,321.32,342.41,378.93,271.2,379.06z
	 M237.97,225.04c0-14.1-11.43-25.52-25.52-25.52c-14.1,0-25.52,11.42-25.52,25.52c0,14.09,11.43,25.52,25.52,25.52
	C226.54,250.56,237.97,239.14,237.97,225.04z M329.96,199.52c-14.09,0-25.52,11.42-25.52,25.52c0,14.09,11.43,25.52,25.52,25.52
	c14.1,0,25.52-11.43,25.52-25.52C355.48,210.95,344.05,199.52,329.96,199.52z M271.2,347.55c35.69,0,64.63-28.94,64.63-64.63H206.58
	C206.58,318.61,235.51,347.55,271.2,347.55z"/>
<ellipse class="st4" cx="271.2" cy="492.41" rx="109.95" ry="7.92"/>
</svg>
